<svg width="1440" height="1288" viewBox="0 0 1440 1288" fill="none" xmlns="http://www.w3.org/2000/svg">
<path d="M0 207H822V0.5L1449.5 0.5V1024.5H594V1289.5H0V207Z" fill="#111111"/>
<rect x="41.5" y="281.5" width="384" height="689" stroke="#F9F9F9" stroke-width="3" stroke-dasharray="6 6"/>
<path d="M531 288.948V282.983H532.5V281.5H533.932V280H539.796V281.5H545.659V280H551.523V281.5H557.386V280H563.25V281.5H569.114V280H574.977V281.5H580.841V280H586.705V281.5H592.568V280H598.432V281.5H604.295V280H610.159V281.5H616.023V280H621.886V281.5H627.75V280H633.614V281.5H639.477V280H645.341V281.5H651.205V280H657.068V281.5H662.932V280H668.795V281.5H674.659V280H680.523V281.5H686.386V280H692.25V281.5H698.114V280H703.977V281.5H709.841V280H715.705V281.5H721.568V280H727.432V281.5H733.295V280H739.159V281.5H745.023V280H750.886V281.5H756.75V280H762.614V281.5H768.477V280H774.341V281.5H780.205V280H786.068V281.5H787.5V282.792H789V288.376H787.5V293.96H789V299.545H787.5V305.129H789V310.713H787.5V316.297H789V321.881H787.5V324.673V326.173H789H791.932V324.673H797.795V326.173H803.659V324.673H809.523V326.173H815.386V324.673H821.25V326.173H827.114V324.673H832.977V326.173H838.841V324.673H844.705V326.173H850.568V324.673H856.432V326.173H862.295V324.673H868.159V326.173H874.023V324.673H879.886V326.173H885.75V324.673H891.614V326.173H897.477V324.673H903.341V326.173H909.205V324.673H915.068V326.173H916.5V327.67H918V333.664H916.5V339.657H918V345.651H916.5V351.645H918V357.639H916.5V363.632H918V369.626H916.5V375.62H918V381.614H916.5V387.608H918V393.601H916.5V399.595H918V405.589H916.5V411.583H918V417.576H916.5V423.57H918V429.564H916.5V435.558H918V441.552H916.5V447.545H918V453.539H916.5V459.533H918V465.527H916.5V471.52H918V477.514H916.5V483.508H918V489.502H916.5V495.495H918V501.489H916.5V507.483H918V513.477H916.5V519.471H918V525.464H916.5V531.458H918V537.452H916.5V543.446H918V549.439H916.5V555.433H918V561.427H916.5V567.421H918V573.415H916.5V579.408H918V585.402H916.5V591.396H918V597.39H916.5V603.383H918V609.377H916.5V615.371H918V621.365H916.5V627.358H918V633.352H916.5V639.346H918V645.34H916.5V651.334H918V657.327H916.5V663.321H918V669.315H916.5V675.309H918V681.302H916.5V687.296H918V693.29H916.5V699.284H918V705.278H916.5V711.271H918V717.265H916.5V723.259H918V729.253H916.5V735.246H918V741.24H916.5V747.234H918V753.228H916.5V759.221H918V765.215H916.5V771.209H918V777.203H916.5V783.196H918V789.19H916.5V795.184H918V801.178H916.5V807.172H918V813.165H916.5V819.159H918V825.153H916.5V831.147H918V837.14H916.5V843.134H918V849.128H916.5V855.122H918V861.115H916.5V867.109H918V873.103H916.5V879.097H918V885.09H916.5V891.084H918V897.078H916.5V903.072H918V909.065H916.5V915.059H918V921.053H916.5V927.047H918V933.041H916.5V939.034H918V945.028H916.5V951.022H918V957.016H916.5V963.009H918V969.003H916.5V970.5H914.977V972H908.93V970.5H902.883V972H896.836V970.5H890.789V972H884.742V970.5H878.695V972H872.648V970.5H866.602V972H860.555V970.5H854.508V972H848.461V970.5H842.414V972H836.367V970.5H830.32V972H824.273V970.5H818.227V972H812.18V970.5H806.133V972H800.086V970.5H794.039V972H787.992V970.5H781.945V972H775.898V970.5H769.852V972H763.805V970.5H757.758V972H751.711V970.5H745.664V972H739.617V970.5H733.57V972H727.523V970.5H721.477V972H715.43V970.5H709.383V972H703.336V970.5H697.289V972H691.242V970.5H685.195V972H679.148V970.5H673.102V972H667.055V970.5H661.008V972H654.961V970.5H648.914V972H642.867V970.5H636.82V972H630.773V970.5H624.727V972H618.68V970.5H612.633V972H606.586V970.5H600.539V972H594.492V970.5H588.445V972H582.398V970.5H576.352V972H570.305V970.5H564.258V972H558.211V970.5H552.164V972H546.117V970.5H540.07V972H534.023V970.5H532.5V969.017H531V963.052H532.5V957.086H531V951.12H532.5V945.155H531V939.189H532.5V933.224H531V927.258H532.5V921.293H531V915.327H532.5V909.362H531V903.396H532.5V897.431H531V891.465H532.5V885.5H531V879.534H532.5V873.569H531V867.603H532.5V861.638H531V855.672H532.5V849.707H531V843.741H532.5V837.776H531V831.81H532.5V825.845H531V819.879H532.5V813.914H531V807.948H532.5V801.983H531V796.017H532.5V790.052H531V784.086H532.5V778.121H531V772.155H532.5V766.19H531V760.224H532.5V754.258H531V748.293H532.5V742.327H531V736.362H532.5V730.396H531V724.431H532.5V718.465H531V712.5H532.5V706.534H531V700.569H532.5V694.603H531V688.638H532.5V682.672H531V676.707H532.5V670.741H531V664.776H532.5V658.81H531V652.845H532.5V646.879H531V640.914H532.5V634.948H531V628.983H532.5V623.017H531V617.052H532.5V611.086H531V605.121H532.5V599.155H531V593.19H532.5V587.224H531V581.259H532.5V575.293H531V569.328H532.5V563.362H531V557.396H532.5V551.431H531V545.465H532.5V539.5H531V533.534H532.5V527.569H531V521.603H532.5V515.638H531V509.672H532.5V503.707H531V497.741H532.5V491.776H531V485.81H532.5V479.845H531V473.879H532.5V467.914H531V461.948H532.5V455.983H531V450.017H532.5V444.052H531V438.086H532.5V432.121H531V426.155H532.5V420.19H531V414.224H532.5V408.259H531V402.293H532.5V396.328H531V390.362H532.5V384.397H531V378.431H532.5V372.465H531V366.5H532.5V360.534H531V354.569H532.5V348.603H531V342.638H532.5V336.672H531V330.707H532.5V324.741H531V318.776H532.5V312.81H531V306.845H532.5V300.879H531V294.914H532.5V288.948H531Z" stroke="#F9F9F9" stroke-width="3" stroke-dasharray="6 6"/>
<rect x="1018.5" y="325.5" width="384" height="645" stroke="#F9F9F9" stroke-width="3" stroke-dasharray="6 6"/>
</svg>
