<svg width="3142" height="906" viewBox="0 0 3142 906" fill="none" xmlns="http://www.w3.org/2000/svg">
<path d="M0 476.788C0 399.219 2.06702 361.986 7.23457 298.897C20.6702 145.829 74.4127 53.7809 289.383 28.959L537.425 0V89.9795L291.45 118.938C150.892 135.486 110.586 178.925 99.217 310.274C144.691 249.253 218.071 223.397 292.483 223.397C450.61 223.397 571.531 336.13 571.531 496.438C571.531 654.678 448.543 770.514 284.215 770.514C118.854 770.514 0 659.849 0 476.788ZM99.217 497.473C99.217 606.069 177.764 681.568 285.249 681.568C394.801 681.568 472.314 605.034 472.314 497.473C472.314 390.945 394.801 312.342 285.249 312.342C174.663 312.342 99.217 389.911 99.217 497.473Z" fill="#111111"/>
<path d="M744.515 664.269L1761.62 207.884H1859.8V761.205H1761.62V308.746L744.515 761.205H646.331V207.884H744.515V664.269Z" fill="#111111"/>
<path d="M2004.83 207.884H2353.13V761.205H2253.91V297.863H2095.78L2087.51 538.842C2082.35 692.945 2056.51 766.377 1921.12 766.377H1915.95V676.397H1922.15C1977.96 676.397 1990.36 645.37 1995.53 533.671L2004.83 207.884Z" fill="#111111"/>
<path d="M2492.22 207.884H3070.69V671.226H3142V906H3052.08V761.205H2491.19V906H2402.31V671.226H2411.61C2465.35 671.226 2478.79 643.301 2481.89 524.363L2492.22 207.884ZM2972.5 297.863H2582.14L2575.94 521.26C2572.84 584.349 2567.67 633.993 2552.17 671.226H2972.5V297.863Z" fill="#111111"/>
</svg>
