<svg width="464" height="460" viewBox="0 0 464 460" fill="none" xmlns="http://www.w3.org/2000/svg">
<path d="M2.00056 69H294V47.5H232V2.00011L462 2.00022V345H422.5L422.5 458L2.00056 458V223.551L2 165.976L2.00056 69Z" stroke="#F9F9F9" stroke-width="3"/>
<path d="M462 178.5L281 178.5L2 178.5" stroke="#F9F9F9" stroke-width="3"/>
<path d="M383.5 178L103 458.5" stroke="#F9F9F9" stroke-width="3"/>
<path d="M362 179L83 458" stroke="#F9F9F9" stroke-width="3"/>
<path d="M342 178.5L62.5 458" stroke="#F9F9F9" stroke-width="3"/>
<path d="M322 178L41.5 458.5" stroke="#F9F9F9" stroke-width="3"/>
<path d="M302.5 178L22 458.5" stroke="#F9F9F9" stroke-width="3"/>
<path d="M283 178L2.5 458.5" stroke="#F9F9F9" stroke-width="3"/>
<path d="M263.5 178L2.5 439" stroke="#F9F9F9" stroke-width="3"/>
<path d="M244 178L1.5 420.5" stroke="#F9F9F9" stroke-width="3"/>
<path d="M224.5 178L1.5 401" stroke="#F9F9F9" stroke-width="3"/>
<path d="M205 178L1.5 381.5" stroke="#F9F9F9" stroke-width="3"/>
<path d="M185.5 178L2 361.5" stroke="#F9F9F9" stroke-width="3"/>
<path d="M166 178L2.5 341.5" stroke="#F9F9F9" stroke-width="3"/>
<path d="M146.5 178L2 322.5" stroke="#F9F9F9" stroke-width="3"/>
<path d="M127 178L1.5 303.5" stroke="#F9F9F9" stroke-width="3"/>
<path d="M107.5 178L1.5 284" stroke="#F9F9F9" stroke-width="3"/>
<path d="M88 178L1.5 264.5" stroke="#F9F9F9" stroke-width="3"/>
<path d="M68.5 178L2 244.5" stroke="#F9F9F9" stroke-width="3"/>
<path d="M49 178L2.5 224.5" stroke="#F9F9F9" stroke-width="3"/>
<path d="M29.5 178L1.5 206" stroke="#F9F9F9" stroke-width="3"/>
<path d="M403.5 178.5L124.5 457.5" stroke="#F9F9F9" stroke-width="3"/>
<path d="M424 178.5L145 457.5" stroke="#F9F9F9" stroke-width="3"/>
<path d="M445 178L165.5 457.5" stroke="#F9F9F9" stroke-width="3"/>
<path d="M462 181.5L185.5 458" stroke="#F9F9F9" stroke-width="3"/>
<path d="M462.5 201.5L206 458" stroke="#F9F9F9" stroke-width="3"/>
<path d="M462.5 222L227 457.5" stroke="#F9F9F9" stroke-width="3"/>
<path d="M459.5 245.5L247.5 457.5" stroke="#F9F9F9" stroke-width="3"/>
<path d="M461 264.5L268 457.5" stroke="#F9F9F9" stroke-width="3"/>
<path d="M461 285L288.5 457.5" stroke="#F9F9F9" stroke-width="3"/>
<path d="M461 305.5L309 457.5" stroke="#F9F9F9" stroke-width="3"/>
<path d="M422.5 364.5L329 458" stroke="#F9F9F9" stroke-width="3"/>
<path d="M461 326L442.5 344.5" stroke="#F9F9F9" stroke-width="3"/>
<path d="M422.5 385L350 457.5" stroke="#F9F9F9" stroke-width="3"/>
<path d="M422.5 405.5L370.5 457.5" stroke="#F9F9F9" stroke-width="3"/>
<path d="M422.5 426L391.5 457" stroke="#F9F9F9" stroke-width="3"/>
<path d="M422 447L411.5 457.5" stroke="#F9F9F9" stroke-width="3"/>
</svg>
