<svg width="465" height="461" viewBox="0 0 465 461" fill="none" xmlns="http://www.w3.org/2000/svg">
<path d="M3 2L463 2.00022V408.255V458H371.64L3.00056 458V223.551L3 165.976V2Z" stroke="#F9F9F9" stroke-width="3"/>
<path d="M4 326H183V3" stroke="#F9F9F9" stroke-width="3"/>
<path d="M463 260H224L224 458" stroke="#F9F9F9" stroke-width="3"/>
<path d="M224 367H183V260H224" stroke="#F9F9F9" stroke-width="3"/>
<path d="M2 38L37 3" stroke="#F9F9F9" stroke-width="3"/>
<path d="M303 259.5L223.5 339" stroke="#F9F9F9" stroke-width="3"/>
<path d="M281.5 260.5L224.5 317.5" stroke="#F9F9F9" stroke-width="3"/>
<path d="M261 260.5L224 297.5" stroke="#F9F9F9" stroke-width="3"/>
<path d="M242.5 260.5L224 279" stroke="#F9F9F9" stroke-width="3"/>
<path d="M206 260.5L224.5 279" stroke="#F9F9F9" stroke-width="3"/>
<path d="M189 260L224.5 295.5" stroke="#F9F9F9" stroke-width="3"/>
<path d="M183 270.5L224.5 312" stroke="#F9F9F9" stroke-width="3"/>
<path d="M183.5 287.5L224.5 328.5" stroke="#F9F9F9" stroke-width="3"/>
<path d="M183 303.5L224.5 345" stroke="#F9F9F9" stroke-width="3"/>
<path d="M182.5 319.5L224.5 361.5" stroke="#F9F9F9" stroke-width="3"/>
<path d="M182.5 336L213.5 367" stroke="#F9F9F9" stroke-width="3"/>
<path d="M183.5 353.5L197.5 367.5" stroke="#F9F9F9" stroke-width="3"/>
<path d="M2 58.5L58 2.5" stroke="#F9F9F9" stroke-width="3"/>
<path d="M323 260L224.5 358.5" stroke="#F9F9F9" stroke-width="3"/>
<path d="M2 79L79 2" stroke="#F9F9F9" stroke-width="3"/>
<path d="M343.5 260L224 379.5" stroke="#F9F9F9" stroke-width="3"/>
<path d="M2 99.5L99.5 2" stroke="#F9F9F9" stroke-width="3"/>
<path d="M364 260L224 400" stroke="#F9F9F9" stroke-width="3"/>
<path d="M2 120L120 2" stroke="#F9F9F9" stroke-width="3"/>
<path d="M385 259.5L223.5 421" stroke="#F9F9F9" stroke-width="3"/>
<path d="M2 140.5L140 2.5" stroke="#F9F9F9" stroke-width="3"/>
<path d="M405 260L224.5 440.5" stroke="#F9F9F9" stroke-width="3"/>
<path d="M2 161L160.5 2.5" stroke="#F9F9F9" stroke-width="3"/>
<path d="M425.5 260L228 457.5" stroke="#F9F9F9" stroke-width="3"/>
<path d="M2 181.5L180.5 3" stroke="#F9F9F9" stroke-width="3"/>
<path d="M446.5 259.5L249 457" stroke="#F9F9F9" stroke-width="3"/>
<path d="M2 202L182 22" stroke="#F9F9F9" stroke-width="3"/>
<path d="M462 264.5L267.5 459" stroke="#F9F9F9" stroke-width="3"/>
<path d="M2.5 222L182 42.5" stroke="#F9F9F9" stroke-width="3"/>
<path d="M462 285L289.5 457.5" stroke="#F9F9F9" stroke-width="3"/>
<path d="M3.5 241.5L182 63" stroke="#F9F9F9" stroke-width="3"/>
<path d="M462 305.5L310 457.5" stroke="#F9F9F9" stroke-width="3"/>
<path d="M3 262.5L182 83.5" stroke="#F9F9F9" stroke-width="3"/>
<path d="M462 326L330 458" stroke="#F9F9F9" stroke-width="3"/>
<path d="M3.5 282.5L182 104" stroke="#F9F9F9" stroke-width="3"/>
<path d="M462 346.5L351 457.5" stroke="#F9F9F9" stroke-width="3"/>
<path d="M3 303.5L182 124.5" stroke="#F9F9F9" stroke-width="3"/>
<path d="M462 367L371.5 457.5" stroke="#F9F9F9" stroke-width="3"/>
<path d="M4 323L182 145" stroke="#F9F9F9" stroke-width="3"/>
<path d="M462 387.5L392.5 457" stroke="#F9F9F9" stroke-width="3"/>
<path d="M22 325.5L182 165.5" stroke="#F9F9F9" stroke-width="3"/>
<path d="M462 408L412.5 457.5" stroke="#F9F9F9" stroke-width="3"/>
<path d="M42 326L182 186" stroke="#F9F9F9" stroke-width="3"/>
<path d="M62.5 325.5L182 206" stroke="#F9F9F9" stroke-width="3"/>
<path d="M82.5 325.5L183 225" stroke="#F9F9F9" stroke-width="3"/>
<path d="M102.5 325.5L182.5 245.5" stroke="#F9F9F9" stroke-width="3"/>
<path d="M122.5 325.5L183 265" stroke="#F9F9F9" stroke-width="3"/>
<path d="M142.5 325.5L182.5 285.5" stroke="#F9F9F9" stroke-width="3"/>
<path d="M161.5 326.5L183 305" stroke="#F9F9F9" stroke-width="3"/>
<path d="M462 428.5L433 457.5" stroke="#F9F9F9" stroke-width="3"/>
</svg>
