<svg width="465" height="460" viewBox="0 0 465 460" fill="none" xmlns="http://www.w3.org/2000/svg">
<path d="M3 2L463 2.00022V408.255V458H371.64L3.00056 458V223.551L3 165.976V2Z" stroke="#F9F9F9" stroke-width="3"/>
<path d="M3.5 215H182.5V3.5" stroke="#F9F9F9" stroke-width="3"/>
<path d="M463 178.5H282V457.5" stroke="#F9F9F9" stroke-width="3"/>
<path d="M2 38L37 3" stroke="#F9F9F9" stroke-width="3"/>
<path d="M384.5 178L282 280.5" stroke="#F9F9F9" stroke-width="3"/>
<path d="M363 179L282 260" stroke="#F9F9F9" stroke-width="3"/>
<path d="M343 178.5L282 239.5" stroke="#F9F9F9" stroke-width="3"/>
<path d="M323 178L282 219" stroke="#F9F9F9" stroke-width="3"/>
<path d="M2 58.5L58 2.5" stroke="#F9F9F9" stroke-width="3"/>
<path d="M404.5 178.5L282 301" stroke="#F9F9F9" stroke-width="3"/>
<path d="M2 79L79 2" stroke="#F9F9F9" stroke-width="3"/>
<path d="M425 178.5L282 321.5" stroke="#F9F9F9" stroke-width="3"/>
<path d="M2 99.5L99.5 2" stroke="#F9F9F9" stroke-width="3"/>
<path d="M446 178L282 342" stroke="#F9F9F9" stroke-width="3"/>
<path d="M2 120L120 2" stroke="#F9F9F9" stroke-width="3"/>
<path d="M463 181.5L282 362.5" stroke="#F9F9F9" stroke-width="3"/>
<path d="M2 140.5L140 2.5" stroke="#F9F9F9" stroke-width="3"/>
<path d="M463.5 201.5L282 383" stroke="#F9F9F9" stroke-width="3"/>
<path d="M2 161L160.5 2.5" stroke="#F9F9F9" stroke-width="3"/>
<path d="M463.5 222L282 403.5" stroke="#F9F9F9" stroke-width="3"/>
<path d="M2 181.5L180.5 3" stroke="#F9F9F9" stroke-width="3"/>
<path d="M460.5 245.5L282 424" stroke="#F9F9F9" stroke-width="3"/>
<path d="M2 202L182 22" stroke="#F9F9F9" stroke-width="3"/>
<path d="M462 264.5L282 444.5" stroke="#F9F9F9" stroke-width="3"/>
<path d="M9.5 215L182 42.5" stroke="#F9F9F9" stroke-width="3"/>
<path d="M462 285L289.5 457.5" stroke="#F9F9F9" stroke-width="3"/>
<path d="M30 215L182 63" stroke="#F9F9F9" stroke-width="3"/>
<path d="M462 305.5L310 457.5" stroke="#F9F9F9" stroke-width="3"/>
<path d="M50 215.5L182 83.5" stroke="#F9F9F9" stroke-width="3"/>
<path d="M462 326L330 458" stroke="#F9F9F9" stroke-width="3"/>
<path d="M71 215L182 104" stroke="#F9F9F9" stroke-width="3"/>
<path d="M462 346.5L351 457.5" stroke="#F9F9F9" stroke-width="3"/>
<path d="M91.5 215L182 124.5" stroke="#F9F9F9" stroke-width="3"/>
<path d="M462 367L371.5 457.5" stroke="#F9F9F9" stroke-width="3"/>
<path d="M112.5 214.5L182 145" stroke="#F9F9F9" stroke-width="3"/>
<path d="M462 387.5L392.5 457" stroke="#F9F9F9" stroke-width="3"/>
<path d="M132.5 215L182 165.5" stroke="#F9F9F9" stroke-width="3"/>
<path d="M462 408L412.5 457.5" stroke="#F9F9F9" stroke-width="3"/>
<path d="M153 215L182 186" stroke="#F9F9F9" stroke-width="3"/>
<path d="M462 428.5L433 457.5" stroke="#F9F9F9" stroke-width="3"/>
</svg>
