<svg width="249" height="286" viewBox="0 0 249 286" fill="none" xmlns="http://www.w3.org/2000/svg">
<path d="M248.061 144.061C248.646 143.475 248.646 142.525 248.061 141.939L238.515 132.393C237.929 131.808 236.979 131.808 236.393 132.393C235.808 132.979 235.808 133.929 236.393 134.515L244.879 143L236.393 151.485C235.808 152.071 235.808 153.021 236.393 153.607C236.979 154.192 237.929 154.192 238.515 153.607L248.061 144.061ZM-1.31134e-07 144.5L247 144.5L247 141.5L1.31134e-07 141.5L-1.31134e-07 144.5Z" fill="#111111"/>
<path d="M123.939 285.061C124.525 285.646 125.475 285.646 126.061 285.061L135.607 275.515C136.192 274.929 136.192 273.979 135.607 273.393C135.021 272.808 134.071 272.808 133.485 273.393L125 281.879L116.515 273.393C115.929 272.808 114.979 272.808 114.393 273.393C113.808 273.979 113.808 274.929 114.393 275.515L123.939 285.061ZM126.061 0.93934C125.475 0.353553 124.525 0.353553 123.939 0.93934L114.393 10.4853C113.808 11.0711 113.808 12.0208 114.393 12.6066C114.979 13.1924 115.929 13.1924 116.515 12.6066L125 4.12132L133.485 12.6066C134.071 13.1924 135.021 13.1924 135.607 12.6066C136.192 12.0208 136.192 11.0711 135.607 10.4853L126.061 0.93934ZM126.5 284L126.5 2L123.5 2L123.5 284L126.5 284Z" fill="#111111"/>
</svg>
