<svg width="887" height="675" viewBox="0 0 887 675" fill="none" xmlns="http://www.w3.org/2000/svg">
<path d="M163.5 2H2.67303V673H116M163.5 2V203.555M163.5 2H471.621M163.5 203.555H471.621M163.5 203.555H2.67285M471.621 203.555V2M471.621 203.555H693.621M471.621 2H758.69M693.621 203.555H758.69M693.621 203.555V248.203H568.586V311.987H691.069V282.646M758.69 203.555V2M758.69 203.555V282.646H885M758.69 2H885V282.646M691.069 282.646H660.448M691.069 282.646H721.69M278.965 430.624V368.116H350.414V402.559H321.069V430.624M278.965 430.624H321.069M278.965 430.624V531.401V673M278.965 430.624H116V673M321.069 430.624H441M278.965 673H441M278.965 673H116M441 673V514.818M441 673H637.483M441 430.624V514.818M441 430.624H513.724M441 514.818H463.965L486.931 537.779V514.818H513.724V430.624M513.724 430.624H691.069V411.489H674.483V368.116H809.724M568.586 479.099H637.483V673M637.483 673H776.552M776.552 673H885V368.116M776.552 673V581.152H809.724V368.116M809.724 368.116H885M885 368.116V282.646" stroke="#F9F9F9" stroke-width="4"/>
</svg>
