<svg width="207" height="57" viewBox="0 0 207 57" fill="none" xmlns="http://www.w3.org/2000/svg">
<path d="M12.1024 1.30337C11.527 0.727969 10.5941 0.727969 10.0187 1.30337L0.642058 10.68C0.0666609 11.2554 0.0666609 12.1883 0.642058 12.7637C1.21746 13.3391 2.15036 13.3391 2.72576 12.7637L11.0605 4.42891L19.3953 12.7637C19.9707 13.3391 20.9036 13.3391 21.479 12.7637C22.0544 12.1883 22.0544 11.2554 21.479 10.68L12.1024 1.30337ZM11.0605 46.056H9.58715V47.5294H11.0605V46.056ZM206.1 47.0978C206.675 46.5224 206.675 45.5895 206.1 45.0141L196.723 35.6375C196.148 35.0621 195.215 35.0621 194.639 35.6375C194.064 36.2129 194.064 37.1458 194.639 37.7212L202.974 46.056L194.639 54.3908C194.064 54.9662 194.064 55.8991 194.639 56.4745C195.215 57.0499 196.148 57.0499 196.723 56.4745L206.1 47.0978ZM9.58715 2.34521V46.056H12.5339V2.34521H9.58715ZM11.0605 47.5294H205.058V44.5826H11.0605V47.5294Z" fill="#111111"/>
</svg>
