<svg width="253" height="167" viewBox="0 0 253 167" fill="none" xmlns="http://www.w3.org/2000/svg">
<path d="M0.463034 35.3375C-0.112363 35.9129 -0.112363 36.8458 0.463034 37.4212L9.83967 46.7979C10.4151 47.3733 11.348 47.3733 11.9234 46.7979C12.4988 46.2225 12.4988 45.2896 11.9234 44.7142L3.58858 36.3794L11.9234 28.0446C12.4988 27.4692 12.4988 26.5363 11.9234 25.9609C11.348 25.3855 10.4151 25.3855 9.83967 25.9609L0.463034 35.3375ZM252.042 37.4212C252.617 36.8458 252.617 35.9129 252.042 35.3375L242.665 25.9609C242.09 25.3855 241.157 25.3855 240.582 25.9609C240.006 26.5363 240.006 27.4692 240.582 28.0446L248.916 36.3794L240.582 44.7142C240.006 45.2896 240.006 46.2225 240.582 46.7979C241.157 47.3733 242.09 47.3733 242.665 46.7979L252.042 37.4212ZM1.50488 37.8528H251V34.906H1.50488V37.8528Z" fill="#111111"/>
<path d="M182.183 166.098C182.758 166.673 183.691 166.673 184.266 166.098L193.643 156.721C194.218 156.146 194.218 155.213 193.643 154.638C193.068 154.062 192.135 154.062 191.559 154.638L183.225 162.972L174.89 154.638C174.314 154.062 173.382 154.062 172.806 154.638C172.231 155.213 172.231 156.146 172.806 156.721L182.183 166.098ZM184.266 0.958374C183.691 0.382965 182.758 0.382965 182.183 0.958374L172.806 10.335C172.231 10.9104 172.231 11.8433 172.806 12.4187C173.382 12.9941 174.314 12.9941 174.89 12.4187L183.225 4.08391L191.559 12.4187C192.135 12.9941 193.068 12.9941 193.643 12.4187C194.218 11.8433 194.218 10.9104 193.643 10.335L184.266 0.958374ZM184.698 165.056V2.00021H181.751V165.056H184.698Z" fill="#111111"/>
</svg>
